<svg xmlns="http://www.w3.org/2000/svg" width="44" height="34.88" viewBox="0 0 44 34.88">
  <metadata><?xpacket begin="﻿" id="W5M0MpCehiHzreSzNTczkc9d"?>
<x:xmpmeta xmlns:x="adobe:ns:meta/" x:xmptk="Adobe XMP Core 5.6-c142 79.160924, 2017/07/13-01:06:39        ">
   <rdf:RDF xmlns:rdf="http://www.w3.org/1999/02/22-rdf-syntax-ns#">
      <rdf:Description rdf:about=""/>
   </rdf:RDF>
</x:xmpmeta>
                                                                                                    
                                                                                                    
                                                                                                    
                                                                                                    
                                                                                                    
                                                                                                    
                                                                                                    
                                                                                                    
                                                                                                    
                                                                                                    
                                                                                                    
                                                                                                    
                                                                                                    
                                                                                                    
                                                                                                    
                                                                                                    
                                                                                                    
                                                                                                    
                                                                                                    
                                                                                                    
                           
<?xpacket end="w"?></metadata>
<defs>
    <style>
      .cls-1 {
        fill: #8c9494;
        fill-rule: evenodd;
      }
    </style>
  </defs>
  <path id="Shape_3_copy" data-name="Shape 3 copy" class="cls-1" d="M884.113,2313.17a0.854,0.854,0,0,1-.606-1.46,0.9,0.9,0,0,1,1.214,0,0.863,0.863,0,0,1,.251.61,0.827,0.827,0,0,1-.251.6A0.858,0.858,0,0,1,884.113,2313.17Zm11.329-8.28h-1.364a0.574,0.574,0,0,1-.572-0.57,0.568,0.568,0,0,1,.572-0.57h1.364a0.568,0.568,0,0,1,.573.57A0.574,0.574,0,0,1,895.442,2304.89Zm9.975-18.31H862.583a0.569,0.569,0,0,0-.572.57v27.89a0.575,0.575,0,0,0,.572.57h14.635l-3.267,4.93a0.568,0.568,0,0,0,.478.88h25.246a0.569,0.569,0,0,0,.572-0.57v-5.24h5.17a0.573,0.573,0,0,0,.572-0.57v-27.89A0.566,0.566,0,0,0,905.417,2286.58Zm-16.142,33.7H875.494l3.1-4.67h10.684v4.67h0Zm0-5.81h-26.27v-3.88h26.27v3.88Zm9.828,5.81H890.42v-2.2H899.1v2.2h0Zm0-3.34H890.42V2306.5H899.1v10.44h0Zm0-11.58H890.42v-2.07H899.1v2.07h0Zm0.572-3.21h-9.827a0.575,0.575,0,0,0-.573.57v6.86H862.989v-22.01h41.985v22.02h-4.727v-6.87A0.575,0.575,0,0,0,899.675,2302.15Zm5.3,12.32h-4.727v-3.91h4.727v3.91Zm-10.213,4.11a0.58,0.58,0,1,1-.577.58A0.579,0.579,0,0,1,894.761,2318.58Z" transform="translate(-862 -2286.56)"/>
</svg>
