<svg xmlns="http://www.w3.org/2000/svg" width="39" height="39" viewBox="0 0 39 39">
  <metadata><?xpacket begin="﻿" id="W5M0MpCehiHzreSzNTczkc9d"?>
<x:xmpmeta xmlns:x="adobe:ns:meta/" x:xmptk="Adobe XMP Core 5.6-c142 79.160924, 2017/07/13-01:06:39        ">
   <rdf:RDF xmlns:rdf="http://www.w3.org/1999/02/22-rdf-syntax-ns#">
      <rdf:Description rdf:about=""/>
   </rdf:RDF>
</x:xmpmeta>
                                                                                                    
                                                                                                    
                                                                                                    
                                                                                                    
                                                                                                    
                                                                                                    
                                                                                                    
                                                                                                    
                                                                                                    
                                                                                                    
                                                                                                    
                                                                                                    
                                                                                                    
                                                                                                    
                                                                                                    
                                                                                                    
                                                                                                    
                                                                                                    
                                                                                                    
                                                                                                    
                           
<?xpacket end="w"?></metadata>
<defs>
    <style>
      .cls-1 {
        fill: #8c9494;
        fill-rule: evenodd;
      }
    </style>
  </defs>
  <path class="cls-1" d="M904,1996H864.993v-39.01L904,1996h0Zm-37.8-1.21h34.873L866.2,1959.92v34.87h0Zm23.263-4.24h-16.6v-16.6l16.6,16.6h0Zm-15.391-1.21h12.467l-12.467-12.47v12.47h0Zm-4.239-18.17H866.2v-1.21h3.633v1.21h0Zm-1.211,4.84H866.2v-1.21h2.422v1.21h0Zm1.211,4.85H866.2v-1.21h3.633v1.21h0Zm-1.211,4.84H866.2v-1.21h2.422v1.21h0Zm1.211,4.85H866.2v-1.21h3.633v1.21h0Zm34.139-5.22-5.986-1.5-22.348-22.35,4.49-4.49,22.348,22.35,1.5,5.99h0Zm-5.367-2.59,3.7,0.92-0.926-3.7-21.254-21.26-2.777,2.78,21.254,21.26h0Zm-18.049-17.2-0.856-.85,3.633-3.64,0.857,0.86-3.634,3.63h0Z" transform="translate(-865 -1957)"/>
</svg>
