<svg xmlns="http://www.w3.org/2000/svg" width="81.75" height="69.47" viewBox="0 0 81.75 69.47">
  <metadata><?xpacket begin="﻿" id="W5M0MpCehiHzreSzNTczkc9d"?>
<x:xmpmeta xmlns:x="adobe:ns:meta/" x:xmptk="Adobe XMP Core 5.6-c142 79.160924, 2017/07/13-01:06:39        ">
   <rdf:RDF xmlns:rdf="http://www.w3.org/1999/02/22-rdf-syntax-ns#">
      <rdf:Description rdf:about=""/>
   </rdf:RDF>
</x:xmpmeta>
                                                                                                    
                                                                                                    
                                                                                                    
                                                                                                    
                                                                                                    
                                                                                                    
                                                                                                    
                                                                                                    
                                                                                                    
                                                                                                    
                                                                                                    
                                                                                                    
                                                                                                    
                                                                                                    
                                                                                                    
                                                                                                    
                                                                                                    
                                                                                                    
                                                                                                    
                                                                                                    
                           
<?xpacket end="w"?></metadata>
<defs>
    <style>
      .cls-1 {
        fill: #fff;
        fill-rule: evenodd;
      }
    </style>
  </defs>
  <path class="cls-1" d="M377.084,1306.47a4.339,4.339,0,0,1-4.3-4.34v-60.78a4.333,4.333,0,0,1,4.3-4.34h73.155a4.332,4.332,0,0,1,4.3,4.34v60.78a4.339,4.339,0,0,1-4.3,4.34H377.084Zm-2.152-56.44h77.459v-8.68a2.162,2.162,0,0,0-2.152-2.17H377.084a2.162,2.162,0,0,0-2.152,2.17v8.68Zm77.459,2.17H374.932v49.93a2.169,2.169,0,0,0,2.152,2.17h73.155a2.169,2.169,0,0,0,2.152-2.17V1252.2Zm-72.08-9.77a1.856,1.856,0,0,1,2.152,2.17c0,1.52-.646,2.18-2.152,2.18s-2.152-.66-2.152-2.18A1.857,1.857,0,0,1,380.311,1242.43Zm7.532,0c1.5,0,2.151.65,2.151,2.17s-0.646,2.18-2.151,2.18-2.152-.66-2.152-2.18S386.336,1242.43,387.843,1242.43Zm7.53,0c1.5,0,2.151.65,2.151,2.17s-0.646,2.18-2.151,2.18-2.152-.66-2.152-2.18S393.865,1242.43,395.373,1242.43Z" transform="translate(-372.781 -1237)"/>
</svg>
