<svg xmlns="http://www.w3.org/2000/svg" width="88.031" height="69.47" viewBox="0 0 88.031 69.47">
  <metadata><?xpacket begin="﻿" id="W5M0MpCehiHzreSzNTczkc9d"?>
<x:xmpmeta xmlns:x="adobe:ns:meta/" x:xmptk="Adobe XMP Core 5.6-c142 79.160924, 2017/07/13-01:06:39        ">
   <rdf:RDF xmlns:rdf="http://www.w3.org/1999/02/22-rdf-syntax-ns#">
      <rdf:Description rdf:about=""/>
   </rdf:RDF>
</x:xmpmeta>
                                                                                                    
                                                                                                    
                                                                                                    
                                                                                                    
                                                                                                    
                                                                                                    
                                                                                                    
                                                                                                    
                                                                                                    
                                                                                                    
                                                                                                    
                                                                                                    
                                                                                                    
                                                                                                    
                                                                                                    
                                                                                                    
                                                                                                    
                                                                                                    
                                                                                                    
                                                                                                    
                           
<?xpacket end="w"?></metadata>
<defs>
    <style>
      .cls-1 {
        fill: #fff;
        fill-rule: evenodd;
      }
    </style>
  </defs>
  <path class="cls-1" d="M786.389,1290.6a1.727,1.727,0,0,1-1.214-.5,1.681,1.681,0,0,1,0-2.4,1.785,1.785,0,0,1,2.428,0A1.7,1.7,0,0,1,786.389,1290.6Zm22.665-16.45h-2.728a1.13,1.13,0,1,1,0-2.26h2.728A1.13,1.13,0,1,1,809.054,1274.15Zm20.215-36.65h-85.76a1.145,1.145,0,0,0-1.146,1.14v55.66a1.143,1.143,0,0,0,1.146,1.13h29.084l-6.536,9.78a1.134,1.134,0,0,0-.052,1.17,1.148,1.148,0,0,0,1.008.59h50.509a1.136,1.136,0,0,0,1.146-1.13v-10.41h10.6a1.139,1.139,0,0,0,1.146-1.13v-55.66A1.141,1.141,0,0,0,829.269,1237.5Zm-32.553,67.2H769.144l6.2-9.27h21.374v9.27h0Zm0-11.53H744.654v-8.18h52.062v8.18Zm19.662,11.53H799.006v-4.36h17.371v4.36h0Zm0-6.63H799.006v-20.71h17.371v20.71h0Zm0-22.98H799.006v-4.1h17.371v4.1h0Zm1.145-6.37H797.862a1.144,1.144,0,0,0-1.146,1.14v12.86H744.654v-42.95h83.471v42.95h-9.456v-12.87A1.143,1.143,0,0,0,817.523,1268.72Zm10.6,24.45h-9.456v-8.18h9.456v8.18Zm-20.433,8.17a1.14,1.14,0,1,1-1.155,1.14A1.147,1.147,0,0,1,807.691,1301.34Z" transform="translate(-742.375 -1237.5)"/>
</svg>
