<svg xmlns="http://www.w3.org/2000/svg" width="69.15" height="67.87" viewBox="0 0 69.15 67.87">
  <metadata><?xpacket begin="﻿" id="W5M0MpCehiHzreSzNTczkc9d"?>
<x:xmpmeta xmlns:x="adobe:ns:meta/" x:xmptk="Adobe XMP Core 5.6-c142 79.160924, 2017/07/13-01:06:39        ">
   <rdf:RDF xmlns:rdf="http://www.w3.org/1999/02/22-rdf-syntax-ns#">
      <rdf:Description rdf:about=""/>
   </rdf:RDF>
</x:xmpmeta>
                                                                                                    
                                                                                                    
                                                                                                    
                                                                                                    
                                                                                                    
                                                                                                    
                                                                                                    
                                                                                                    
                                                                                                    
                                                                                                    
                                                                                                    
                                                                                                    
                                                                                                    
                                                                                                    
                                                                                                    
                                                                                                    
                                                                                                    
                                                                                                    
                                                                                                    
                                                                                                    
                           
<?xpacket end="w"?></metadata>
<defs>
    <style>
      .cls-1 {
        fill: #fff;
        fill-rule: evenodd;
      }
    </style>
  </defs>
  <path class="cls-1" d="M1196.26,1273.95a1.018,1.018,0,0,0-.03-0.35c-0.03-.25-0.03-1.46-0.03-2.87a1.184,1.184,0,0,0-.02-0.26,5.818,5.818,0,0,0-1.59-3.17,6.424,6.424,0,0,0-4.76-1.6h-18.66a11.552,11.552,0,0,0,1.32-4.25c0.07-.74.12-3.69,0.12-7.53a1.8,1.8,0,0,0-.02-0.22l-1.41-9.77a5.686,5.686,0,0,0-1.54-2.92,5.552,5.552,0,0,0-7.78,0,5.276,5.276,0,0,0-1.57,3.93l-1.78,9.93c-2.66,8.18-6.61,13.84-11.71,16.93a3.432,3.432,0,0,0-.53-0.72,3.633,3.633,0,0,0-2.77-.97h-12.45a3.7,3.7,0,0,0-2.87.99,3.929,3.929,0,0,0-1.07,2.94v29.32a3.622,3.622,0,0,0,3.89,3.92h12.5a3.52,3.52,0,0,0,3.58-2.32,19.141,19.141,0,0,0,7.36,2.1h30.17a5.649,5.649,0,0,0,4.21-1.81l0.44-.46a6.624,6.624,0,0,0,1.34-3.86,5.88,5.88,0,0,0-1.44-3.9,6.58,6.58,0,0,0,1.8-1.25l0.25-.31a6.314,6.314,0,0,0,1.43-3.97,6.2,6.2,0,0,0-.97-3.2,6.636,6.636,0,0,0,1.63-1.25,6.208,6.208,0,0,0,1.61-4.14,5.877,5.877,0,0,0-1.47-3.99,5.75,5.75,0,0,0,1.18-.93A6.274,6.274,0,0,0,1196.26,1273.95Zm-51.86,29.41c0,0.77-.15.92-0.9,0.92H1131c-0.83,0-.95-0.19-0.95-0.92v-29.32a1.2,1.2,0,0,1,.17-0.79,1.256,1.256,0,0,1,.78-0.14h12.55a1.138,1.138,0,0,1,.68.13,1.255,1.255,0,0,1,.17.8v29.32Zm48.11-27.46a2.666,2.666,0,0,1-2.03.78l-0.75.05a1.5,1.5,0,0,0-1.37,1.5v0.22a1.493,1.493,0,0,0,1.2,1.47,2.819,2.819,0,0,1,1.55.85,2.874,2.874,0,0,1,.87,2.14,3.216,3.216,0,0,1-.87,2.14,2.638,2.638,0,0,1-1.97.88l-0.64-.05a1.492,1.492,0,0,0-1.55,1.15,1.514,1.514,0,0,0,.88,1.74,2.549,2.549,0,0,1,1,.75,2.813,2.813,0,0,1,.88,1.97,3.231,3.231,0,0,1-.73,2.03l-0.15.2a2.882,2.882,0,0,1-2.07.86,1.372,1.372,0,0,0-.34.07,1.45,1.45,0,0,0-1.8.96,1.513,1.513,0,0,0,.73,1.82,14.607,14.607,0,0,1,1.4,1.31,2.924,2.924,0,0,1,.92,2.12,3.476,3.476,0,0,1-.6,1.93l-0.32.33a2.821,2.821,0,0,1-2.14.94l-30.03.01a15.515,15.515,0,0,1-7.24-2.47v-26.68c6.22-3.34,10.93-9.77,13.99-19.2a1.462,1.462,0,0,0,.05-0.2l1.83-10.2a1.76,1.76,0,0,0,.02-0.4,2.257,2.257,0,0,1,.74-1.82,2.676,2.676,0,0,1,3.6.03,2.68,2.68,0,0,1,.72,1.31l1.38,9.59c0,4.46-.06,6.71-0.09,7.1a8.381,8.381,0,0,1-2.39,5.01,1.548,1.548,0,0,0-.32,1.64,1.474,1.474,0,0,0,1.36.93h21.6a3.773,3.773,0,0,1,2.68.72,2.69,2.69,0,0,1,.76,1.44c0,1.89,0,2.64.05,3.07A3.173,3.173,0,0,1,1192.51,1275.9Z" transform="translate(-1127.13 -1239.41)"/>
</svg>
