<svg xmlns="http://www.w3.org/2000/svg" width="41" height="40" viewBox="0 0 41 40">
  <metadata><?xpacket begin="﻿" id="W5M0MpCehiHzreSzNTczkc9d"?>
<x:xmpmeta xmlns:x="adobe:ns:meta/" x:xmptk="Adobe XMP Core 5.6-c142 79.160924, 2017/07/13-01:06:39        ">
   <rdf:RDF xmlns:rdf="http://www.w3.org/1999/02/22-rdf-syntax-ns#">
      <rdf:Description rdf:about=""/>
   </rdf:RDF>
</x:xmpmeta>
                                                                                                    
                                                                                                    
                                                                                                    
                                                                                                    
                                                                                                    
                                                                                                    
                                                                                                    
                                                                                                    
                                                                                                    
                                                                                                    
                                                                                                    
                                                                                                    
                                                                                                    
                                                                                                    
                                                                                                    
                                                                                                    
                                                                                                    
                                                                                                    
                                                                                                    
                                                                                                    
                           
<?xpacket end="w"?></metadata>
<defs>
    <style>
      .cls-1 {
        fill: #8c9494;
        fill-rule: evenodd;
      }
    </style>
  </defs>
  <path class="cls-1" d="M889.492,2093.78l-3.214-3.35,0.909-.95,3.213,3.35-0.908.95h0ZM900.228,2109l-13.119-13.68,4.765-4.98,13.118,13.69-4.764,4.97h0Zm-11.3-13.68,11.3,11.79,2.947-3.08-11.3-11.79-2.947,3.08h0Zm-17.744-16.36-4.537-7.89,1.994-2.08,7.562,4.74-5.019,5.23h0Zm-2.92-7.68,3.174,5.52,2.693-2.81-5.291-3.31-0.576.6h0Zm12.875,13.78-8.354-8.72,0.908-.94,8.354,8.71-0.908.95h0ZM865.9,2108.12L864,2106.25l1.28-4.58,0.114-.12,21.343-22.6v-2.41c0-3.35,1.505-7.33,8.675-7.33h0.98l-2.469,5.93,1.953,2.1,5.641-2.76v1.05c0,7.49-3.844,9.06-7.069,9.06h-2.307l-21.827,22.4-4.407,1.13h0Zm-0.452-2.28,0.824,0.81,3.385-.88,21.951-22.52h2.833c3.56,0,5.492-2.24,5.753-6.65l-4.61,2.26-3.189-3.43,2.019-4.85c-4.3.25-6.4,2.21-6.4,5.96v2.96l-21.6,22.87-0.969,3.47h0Z" transform="translate(-864 -2069)"/>
</svg>
